<svg version="1.1" id="Layer_1" xmlns="http://www.w3.org/2000/svg" xmlns:xlink="http://www.w3.org/1999/xlink" x="0px" y="0px"
	 width="100%" viewBox="0 0 2502 742" enable-background="new 0 0 2502 742" xml:space="preserve">
<path fill="#FFFFFF" opacity="1.000000" stroke="none" 
	d="
M1778.000000,743.000000 
	C1185.333496,743.000000 593.166870,743.000000 1.000238,743.000000 
	C1.000159,495.666809 1.000159,248.333633 1.000079,1.000338 
	C834.999695,1.000225 1668.999390,1.000225 2502.999268,1.000113 
	C2502.999512,248.332993 2502.999512,495.665985 2502.999756,742.999512 
	C2261.500000,743.000000 2020.000000,743.000000 1778.000000,743.000000 
M957.065247,310.780029 
	C954.944397,312.065918 952.823608,313.351807 950.954529,315.011261 
	C950.954529,315.011261 950.712708,314.633362 950.007141,314.741180 
	C943.935303,318.193573 937.986755,321.892670 931.747864,325.010864 
	C927.651550,327.058258 926.288147,329.681671 926.313782,334.295868 
	C926.535095,374.087799 926.460388,413.881348 926.518311,453.674316 
	C926.527222,459.829987 926.472656,466.008698 926.970642,472.134247 
	C927.476318,478.354034 929.261414,484.227020 934.562744,488.466858 
	C934.562744,488.466858 934.635010,488.564514 934.814453,488.989105 
	C935.025757,489.248108 935.298279,489.367889 935.878052,488.970459 
	C935.878052,488.970459 935.646851,489.355042 935.913391,489.972656 
	C939.491516,491.638000 943.006531,494.554962 946.659424,494.739349 
	C958.717407,495.347839 970.825317,494.968658 983.162354,494.968658 
	C983.162354,482.965790 983.162354,470.413361 983.162354,457.298584 
	C977.842712,457.298584 972.877319,457.298584 967.979980,457.115631 
	C967.979980,457.115631 967.794800,457.053864 967.915894,456.118713 
	C967.919556,410.701965 967.927185,365.285248 967.914001,319.868500 
	C967.913452,317.882904 967.722778,315.897400 967.786194,313.152618 
	C967.736572,312.123230 967.686951,311.093872 967.887634,309.291260 
	C967.771667,307.929626 967.655762,306.567963 967.467102,304.352020 
	C963.729126,306.791351 960.732239,308.747040 957.896790,310.975830 
	C957.896790,310.975830 957.768250,310.685852 957.065247,310.780029 
M2054.262207,313.096039 
	C2053.167969,313.172455 2052.073975,313.248871 2050.333984,313.146667 
	C2049.895996,313.208771 2049.457764,313.270905 2048.103027,313.126892 
	C2043.511597,313.126892 2038.920288,313.126892 2034.359131,313.126892 
	C2034.359131,325.947601 2034.359131,338.128143 2034.359131,350.854980 
	C2041.510986,350.854980 2048.252686,350.854980 2055.488037,350.854980 
	C2055.488037,353.179596 2055.487549,354.965881 2055.488281,356.752136 
	C2055.496582,380.185669 2055.480957,403.619293 2055.543945,427.052673 
	C2055.552002,430.024048 2055.972656,432.994324 2056.072510,436.820251 
	C2059.989990,480.287170 2097.704834,505.610748 2140.572754,493.341034 
	C2140.572754,480.526672 2140.572754,467.648743 2140.572754,454.374207 
	C2136.613770,455.148499 2133.055176,455.897217 2129.476807,456.535461 
	C2112.769775,459.515350 2101.003418,451.625122 2097.616211,435.039948 
	C2096.987793,431.962982 2096.722168,428.763550 2096.704346,425.618225 
	C2096.602783,407.798859 2096.592529,389.978699 2096.625732,372.158936 
	C2096.639160,365.007294 2096.843018,357.855988 2097.898682,350.760345 
	C2110.949219,350.760345 2123.999512,350.760345 2137.167969,350.760345 
	C2137.167969,337.821167 2137.167969,325.598633 2137.167969,313.332703 
	C2128.561279,313.332703 2120.270752,313.332703 2111.066895,313.144592 
	C2106.343994,313.106537 2101.620850,313.068512 2096.718018,312.103180 
	C2096.718018,294.427155 2096.718018,276.751099 2096.718018,257.819763 
	C2089.458984,262.255280 2083.189209,266.086212 2077.004639,269.985321 
	C2077.004639,269.985321 2076.938965,269.898102 2076.411133,269.915619 
	C2076.163086,270.138885 2075.915039,270.362183 2075.577148,270.751099 
	C2075.577148,270.751099 2075.636719,270.571442 2074.948975,270.729858 
	C2069.623291,273.786102 2064.165771,276.643066 2059.051270,280.019073 
	C2057.503662,281.040680 2056.094727,283.461731 2056.008301,285.306671 
	C2055.573730,294.575012 2055.598633,303.864929 2055.239746,313.027222 
	C2055.239746,313.027222 2055.079102,313.222290 2054.262207,313.096039 
M392.300476,369.168701 
	C390.016968,367.352173 387.733429,365.535645 385.383179,363.666016 
	C386.120728,362.796539 386.520294,362.264771 386.980408,361.791962 
	C410.033264,338.103973 411.357758,296.011383 389.714050,271.275085 
	C374.927460,254.375687 355.467102,248.386871 333.813110,248.219788 
	C306.992523,248.012833 280.168579,248.242249 253.347824,248.043869 
	C249.109192,248.012527 248.092255,249.328125 248.098434,253.404556 
	C248.218552,332.538025 248.197922,411.671692 248.221054,490.805328 
	C248.221512,492.398834 248.399261,493.992310 248.508453,495.823151 
	C252.535034,495.823151 256.017242,495.847351 259.499084,495.819336 
	C288.976196,495.582153 318.543579,496.682037 347.904877,494.712708 
	C377.239899,492.745117 399.834381,477.879150 409.492462,449.117767 
	C419.267273,420.008575 415.479889,392.542847 392.300476,369.168701 
M1220.629272,519.126831 
	C1215.843506,529.669983 1211.057861,540.213196 1206.256348,550.791016 
	C1232.658203,565.642395 1260.050781,572.084595 1289.505737,567.761108 
	C1312.021118,564.456177 1331.691406,555.594299 1345.604492,536.703857 
	C1356.647217,521.710571 1360.029297,504.414215 1360.035278,486.214844 
	C1360.053833,430.073090 1360.062378,373.931305 1360.056152,317.789551 
	C1360.056030,316.369781 1359.839478,314.949982 1359.731323,313.622131 
	C1346.392334,313.622131 1333.510742,313.622131 1320.263428,313.622131 
	C1320.263428,317.170715 1320.263550,320.315796 1320.263550,323.460876 
	C1320.263550,326.431366 1320.263428,329.401886 1320.263428,332.372375 
	C1313.169434,323.064178 1307.961670,318.827942 1298.037354,315.023926 
	C1265.701538,302.629547 1226.552734,315.976929 1208.478149,345.558319 
	C1187.267212,380.272675 1190.150391,434.870819 1214.949585,468.105957 
	C1234.927124,494.879272 1267.167358,505.992767 1299.230225,496.704742 
	C1305.952271,494.757446 1312.234009,491.289978 1318.699951,488.530914 
	C1319.977539,507.969574 1308.388306,523.307495 1288.564209,528.018860 
	C1271.229248,532.138672 1254.479248,529.616577 1238.279785,522.785828 
	C1232.975464,520.549255 1227.916748,517.730347 1222.558594,515.085449 
	C1221.925903,516.383057 1221.421997,517.416321 1220.629272,519.126831 
M1396.361206,470.499939 
	C1396.361206,478.781403 1396.361206,487.062866 1396.361206,495.551361 
	C1410.522827,495.551361 1424.078369,495.551361 1438.169189,495.551361 
	C1438.169189,465.644989 1438.169189,436.072540 1438.169189,406.054840 
	C1440.329834,406.054840 1441.957764,406.058563 1443.585693,406.054260 
	C1457.750366,406.016846 1471.920654,406.213562 1486.077881,405.871307 
	C1499.427246,405.548645 1512.176147,402.286499 1523.738525,395.494049 
	C1549.164062,380.557526 1560.639038,357.493652 1561.393555,328.685303 
	C1561.996582,305.661743 1555.131714,285.233978 1538.087646,269.127533 
	C1522.244019,254.155670 1502.756836,248.308090 1481.365112,248.196411 
	C1454.701904,248.057205 1428.037598,248.150497 1401.373779,248.166534 
	C1399.792969,248.167480 1398.212280,248.373886 1396.361328,248.503632 
	C1396.361328,322.549530 1396.361328,396.024719 1396.361206,470.499939 
M452.731842,341.235748 
	C434.176239,364.561554 428.860504,391.367889 432.644928,420.260895 
	C435.929901,445.340576 447.102875,466.569397 468.007782,481.112732 
	C502.797577,505.315552 539.390015,505.735809 576.491089,486.272247 
	C585.169189,481.719635 592.893555,475.685883 599.202759,467.934204 
	C592.036438,456.999451 585.071594,446.372009 577.963074,435.525360 
	C556.824158,458.505493 532.559082,468.396301 503.045929,455.862244 
	C485.935699,448.595673 477.487122,434.110291 474.370697,415.388397 
	C515.999756,415.388397 556.904724,415.388397 598.235718,415.388397 
	C598.682922,408.737213 599.488892,402.602844 599.403137,396.480988 
	C599.305542,389.512512 599.011353,382.444977 597.755005,375.613159 
	C593.511108,352.536163 583.125854,333.051483 562.278320,320.816681 
	C528.067322,300.739258 479.647827,309.727112 452.731842,341.235748 
M753.657349,495.820190 
	C762.272095,495.820190 770.886902,495.820190 779.662231,495.820190 
	C779.662231,482.846893 779.662231,470.473602 779.662231,457.719543 
	C776.186951,457.719543 773.023804,457.474091 769.914673,457.779114 
	C765.634155,458.199036 764.151123,456.863098 764.198608,452.291321 
	C764.447754,428.297913 764.433167,404.300262 764.294006,380.305359 
	C764.261353,374.668182 763.773499,368.972260 762.844666,363.412018 
	C758.009460,334.465637 740.232361,316.306824 711.412842,310.976532 
	C691.945557,307.376007 672.919617,309.647797 654.435303,316.479858 
	C642.959778,320.721436 632.391846,326.525024 623.569214,335.695465 
	C630.252197,346.591187 636.828247,357.312531 643.358459,367.959167 
	C644.138123,367.674652 644.492310,367.630707 644.735657,367.443115 
	C646.713379,365.918915 648.637878,364.324005 650.638977,362.831757 
	C666.147644,351.266724 683.327393,345.976105 702.714355,349.027222 
	C716.375549,351.177246 726.475220,363.332550 724.494385,375.632721 
	C722.932129,375.702271 721.292480,375.748260 719.656555,375.852448 
	C708.361755,376.571564 697.007263,376.800049 685.787781,378.149078 
	C669.299011,380.131653 653.411072,384.468964 639.331848,393.783569 
	C609.131042,413.763916 605.158997,457.634277 631.269958,482.192047 
	C654.491821,504.032532 696.459290,505.701385 721.286804,485.764587 
	C723.032898,484.362457 724.737549,482.908722 726.461243,481.479095 
	C734.866882,492.800354 739.263550,495.153595 753.657349,495.820190 
M1702.566406,489.052063 
	C1750.051514,463.370178 1768.295166,404.197449 1741.867432,358.094421 
	C1720.923950,321.558441 1687.928101,305.950623 1646.541992,310.310852 
	C1608.511475,314.317596 1581.086914,334.822083 1568.045288,370.966187 
	C1554.862793,407.501221 1561.620972,441.733093 1588.398315,470.186188 
	C1617.947144,501.584442 1662.050903,508.318359 1702.566406,489.052063 
M1977.143188,454.499023 
	C1977.166626,459.497284 1977.008179,464.504303 1977.248413,469.492126 
	C1977.916260,483.351227 1984.844360,493.231140 1997.101685,494.559174 
	C2009.045044,495.853210 2021.238525,494.840363 2033.568481,494.840363 
	C2033.568481,482.872772 2033.568481,470.479156 2033.568481,457.559937 
	C2028.383179,457.559937 2023.467041,457.559937 2017.997559,457.559937 
	C2017.997559,455.415833 2017.997314,453.794434 2017.997681,452.173065 
	C2018.003662,428.179230 2018.167114,404.183807 2017.921997,380.192535 
	C2017.845825,372.733917 2017.214233,365.185852 2015.876343,357.854034 
	C2012.557495,339.666473 2004.626099,323.943817 1986.909424,316.118378 
	C1964.505493,306.222626 1941.833374,306.003845 1920.410156,319.222626 
	C1912.604004,324.039307 1905.748169,330.396088 1898.126953,336.307587 
	C1898.126953,328.813110 1898.126953,321.266876 1898.126953,313.419006 
	C1884.344971,313.419006 1871.110596,313.419006 1857.696899,313.419006 
	C1857.696899,374.278625 1857.696899,434.945282 1857.696899,495.560791 
	C1871.422241,495.560791 1884.684326,495.560791 1898.507446,495.560791 
	C1898.507446,493.303925 1898.506836,491.344452 1898.507568,489.384949 
	C1898.516602,463.724915 1898.656372,438.064026 1898.492676,412.405090 
	C1898.367676,392.819000 1905.211426,376.242523 1919.379395,362.844299 
	C1929.195068,353.561951 1940.810425,348.305145 1954.652344,349.171692 
	C1966.004761,349.882385 1972.287598,354.819672 1974.876099,365.723877 
	C1976.097290,370.868286 1976.860596,376.242188 1976.916382,381.521759 
	C1977.170166,405.512390 1977.098022,429.506531 1977.143188,454.499023 
M1049.127075,466.500000 
	C1049.130615,448.171234 1048.643066,429.823364 1049.355347,411.522186 
	C1049.686157,403.022247 1051.063232,394.096100 1054.210571,386.265289 
	C1061.872192,367.202545 1075.167114,353.518616 1096.270142,349.553131 
	C1113.300293,346.353058 1123.695679,353.497131 1126.724365,369.926270 
	C1126.995239,371.395752 1127.146729,372.904572 1127.175659,374.398590 
	C1127.456787,388.883820 1127.810425,403.368927 1127.924316,417.855804 
	C1128.053955,434.350861 1127.893921,450.848022 1127.979980,467.343658 
	C1128.074951,485.545685 1137.832642,495.409271 1156.092407,495.770538 
	C1164.253906,495.932007 1172.420654,495.849274 1180.584839,495.824707 
	C1181.838013,495.820953 1183.090454,495.532410 1184.361816,495.373199 
	C1184.361816,482.712372 1184.361816,470.438263 1184.361816,457.614563 
	C1179.210571,457.614563 1174.305786,457.614563 1168.932983,457.614563 
	C1168.932983,455.265045 1168.933350,453.464203 1168.932983,451.663361 
	C1168.928345,429.668610 1169.103394,407.671631 1168.830811,385.680206 
	C1168.721680,376.881897 1168.241089,367.997437 1166.853638,359.324310 
	C1163.814575,340.326416 1155.711670,323.950928 1137.180054,315.904602 
	C1115.103271,306.319092 1092.690674,306.071991 1071.559692,318.997589 
	C1063.609985,323.860291 1056.625000,330.299896 1048.814941,336.317444 
	C1048.814941,328.765045 1048.814941,321.226227 1048.814941,313.414215 
	C1034.998169,313.414215 1021.767395,313.414215 1008.446777,313.414215 
	C1008.446777,374.273254 1008.446777,434.821838 1008.446777,495.597778 
	C1022.078552,495.597778 1035.322266,495.597778 1049.127075,495.597778 
	C1049.127075,486.064301 1049.127075,476.782135 1049.127075,466.500000 
M803.016357,426.500000 
	C803.016357,449.429688 803.016357,472.359375 803.016357,495.464417 
	C817.000977,495.464417 830.360962,495.464417 843.991089,495.464417 
	C843.991089,493.538910 843.991211,492.050842 843.991150,490.562775 
	C843.989807,466.078522 843.951233,441.594147 844.002014,417.110016 
	C844.029907,403.646667 846.195862,390.561310 852.025085,378.318817 
	C859.839233,361.907349 873.787781,348.498474 897.959290,353.987732 
	C899.820984,354.410553 901.765381,354.469177 904.120911,354.750854 
	C904.120911,341.824799 904.207581,329.360382 903.969055,316.902161 
	C903.948181,315.813324 901.955811,314.161224 900.599731,313.789185 
	C880.414917,308.251282 862.844360,314.622498 849.160461,332.263275 
	C847.688965,334.160309 846.260010,336.090393 844.811279,338.005157 
	C844.409180,337.876587 844.007080,337.748016 843.604980,337.619476 
	C843.604980,329.604187 843.604980,321.588928 843.604980,313.487366 
	C829.789307,313.487366 816.700256,313.487366 803.016357,313.487366 
	C803.016357,350.995178 803.016357,388.247589 803.016357,426.500000 
M1817.021606,455.102997 
	C1817.021606,405.234772 1817.021606,355.366516 1817.021606,304.612610 
	C1804.236694,311.949341 1792.382812,318.957520 1780.303833,325.553253 
	C1776.845093,327.441864 1775.859619,329.612762 1775.870972,333.384521 
	C1776.003662,377.520416 1775.941895,421.656860 1776.012939,465.793030 
	C1776.018555,469.264984 1776.322144,472.799927 1777.023071,476.194946 
	C1778.897095,485.271240 1784.261597,492.452545 1793.282349,493.842651 
	C1806.104614,495.818542 1819.241943,495.749908 1832.432129,496.566467 
	C1832.432129,482.761414 1832.432129,470.378174 1832.432129,457.689117 
	C1828.456787,457.689117 1824.801758,457.838989 1821.170166,457.613159 
	C1819.777344,457.526550 1818.437988,456.582703 1817.021606,455.102997 
M928.879761,256.435333 
	C928.040100,257.668274 927.080627,258.836914 926.379456,260.144135 
	C919.590698,272.801697 924.441833,288.587799 936.984619,294.778687 
	C949.997803,301.201721 965.248108,295.634491 971.281921,282.258362 
	C976.284119,271.169098 972.418152,258.428833 961.839905,251.141891 
	C951.877441,244.279282 938.993652,246.136108 928.879761,256.435333 
M1777.978760,256.539398 
	C1776.812500,258.540588 1775.457886,260.457031 1774.512573,262.557617 
	C1770.429443,271.631744 1772.837402,283.566650 1779.961182,290.164490 
	C1788.253174,297.844391 1800.221802,299.591644 1809.522095,294.479828 
	C1818.845947,289.355042 1824.187622,278.671082 1822.347046,268.455963 
	C1820.581909,258.659424 1815.141602,251.707672 1805.588745,248.549438 
	C1795.006470,245.050858 1785.974731,247.984039 1777.978760,256.539398 
M2197.739990,433.222595 
	C2196.437012,434.506927 2195.011963,435.690033 2193.850098,437.091370 
	C2183.555664,449.507568 2181.316895,463.419708 2187.543945,478.153137 
	C2193.302979,491.779022 2204.126709,499.125763 2218.988281,499.739685 
	C2234.481934,500.379700 2248.456787,490.322906 2253.630371,475.318085 
	C2259.126465,459.378357 2253.884277,442.049500 2240.534668,432.025726 
	C2228.054199,422.654999 2212.206299,422.938171 2197.739990,433.222595 
z"/>
<path fill="#D42D21" opacity="1.000000" stroke="none" 
	d="
M392.570862,369.400391 
	C415.479889,392.542847 419.267273,420.008575 409.492462,449.117767 
	C399.834381,477.879150 377.239899,492.745117 347.904877,494.712708 
	C318.543579,496.682037 288.976196,495.582153 259.499084,495.819336 
	C256.017242,495.847351 252.535034,495.823151 248.508453,495.823151 
	C248.399261,493.992310 248.221512,492.398834 248.221054,490.805328 
	C248.197922,411.671692 248.218552,332.538025 248.098434,253.404556 
	C248.092255,249.328125 249.109192,248.012527 253.347824,248.043869 
	C280.168579,248.242249 306.992523,248.012833 333.813110,248.219788 
	C355.467102,248.386871 374.927460,254.375687 389.714050,271.275085 
	C411.357758,296.011383 410.033264,338.103973 386.980408,361.791962 
	C386.520294,362.264771 386.120728,362.796539 385.383179,363.666016 
	C387.733429,365.535645 390.016968,367.352173 392.570862,369.400391 
M355.996979,295.993988 
	C355.996979,295.993988 356.023560,295.943115 355.955414,295.318085 
	C355.500946,295.015320 355.046478,294.712585 354.631378,294.261017 
	C354.631378,294.261017 354.521637,294.368958 354.748901,293.628815 
	C353.778229,293.144318 352.807556,292.659851 351.940552,292.052368 
	C351.940552,292.052368 351.885284,292.203430 351.656891,291.611786 
	C351.077332,291.428802 350.497772,291.245819 349.980194,291.006317 
	C349.980194,291.006317 349.961121,291.087982 349.693481,290.591309 
	C349.342621,290.525085 348.991760,290.458862 348.780212,290.322205 
	C348.780212,290.322205 348.708954,290.461090 348.531921,289.706757 
	C347.812775,289.537720 347.093597,289.368683 346.197357,289.264099 
	C346.197357,289.264099 346.052734,289.143250 345.579590,288.531769 
	C344.833221,288.427826 344.086884,288.323883 342.889252,288.424133 
	C342.541870,288.404785 342.248169,288.269226 341.830841,287.219177 
	C340.998779,286.814789 340.168304,286.061554 339.334412,286.057800 
	C323.837646,285.987732 308.340485,286.009735 292.843384,286.005310 
	C289.323578,286.004303 287.649536,287.579254 287.978638,291.248016 
	C288.377502,295.694427 288.865173,300.160950 288.820251,304.613800 
	C288.684418,318.073273 288.180450,331.529755 288.124695,344.988708 
	C288.111847,348.087952 289.837433,350.342255 293.745117,349.302521 
	C295.313599,348.885223 297.045959,349.016083 298.703949,349.013306 
	C311.368256,348.992188 324.036194,349.173828 336.695038,348.909607 
	C341.520142,348.808868 346.476776,348.068878 349.919403,343.856659 
	C349.919403,343.856659 349.630249,343.584534 350.368469,343.795105 
	C355.176483,342.149902 359.080902,339.728546 359.031128,333.102997 
	C364.270569,322.092957 363.908112,311.094757 358.990234,299.357513 
	C358.458527,298.766602 357.926788,298.175720 357.537781,297.448395 
	C357.537781,297.448395 357.350372,297.510468 357.559326,296.902832 
	C357.057037,296.594910 356.554718,296.286987 355.996979,295.993988 
M362.471466,447.476593 
	C362.471466,447.476593 362.486145,447.359894 363.131409,447.485779 
	C363.366150,446.934448 363.600891,446.383118 363.979462,445.993256 
	C363.979462,445.993256 363.817505,445.849884 364.537567,445.838623 
	C364.869171,445.107178 365.200806,444.375702 365.760193,443.858765 
	C365.760193,443.858765 365.575226,443.606384 366.232941,443.552612 
	C366.518982,442.754822 366.805054,441.957001 367.050690,441.084595 
	C367.050690,441.084595 367.134003,441.068390 367.838806,440.906525 
	C368.554474,438.612488 369.270142,436.318481 370.044098,433.180145 
	C376.050293,407.300842 362.758545,384.477203 332.751617,385.758667 
	C320.138397,386.297302 307.483002,385.814819 294.847717,385.912994 
	C293.167511,385.926056 291.492615,386.628204 289.283661,387.645416 
	C288.877167,409.741394 288.488922,431.837708 288.043427,453.932892 
	C287.980927,457.032074 289.512177,457.965118 292.354767,457.956451 
	C309.006042,457.905701 325.664886,458.193268 342.303467,457.730713 
	C346.106537,457.624939 349.840118,455.019196 353.677582,453.597260 
	C353.677582,453.597260 353.696564,453.520325 354.490784,453.806091 
	C357.952332,453.904694 360.985413,453.438141 360.990112,448.995514 
	C360.990112,448.995514 360.915985,448.938110 361.573242,448.924316 
	C361.833740,448.446594 362.094269,447.968872 362.471466,447.476593 
z"/>
<path fill="#D32D21" opacity="1.000000" stroke="none" 
	d="
M1220.773682,518.788208 
	C1221.421997,517.416321 1221.925903,516.383057 1222.558594,515.085449 
	C1227.916748,517.730347 1232.975464,520.549255 1238.279785,522.785828 
	C1254.479248,529.616577 1271.229248,532.138672 1288.564209,528.018860 
	C1308.388306,523.307495 1319.977539,507.969574 1318.699951,488.530914 
	C1312.234009,491.289978 1305.952271,494.757446 1299.230225,496.704742 
	C1267.167358,505.992767 1234.927124,494.879272 1214.949585,468.105957 
	C1190.150391,434.870819 1187.267212,380.272675 1208.478149,345.558319 
	C1226.552734,315.976929 1265.701538,302.629547 1298.037354,315.023926 
	C1307.961670,318.827942 1313.169434,323.064178 1320.263428,332.372375 
	C1320.263428,329.401886 1320.263550,326.431366 1320.263550,323.460876 
	C1320.263550,320.315796 1320.263428,317.170715 1320.263428,313.622131 
	C1333.510742,313.622131 1346.392334,313.622131 1359.731323,313.622131 
	C1359.839478,314.949982 1360.056030,316.369781 1360.056152,317.789551 
	C1360.062378,373.931305 1360.053833,430.073090 1360.035278,486.214844 
	C1360.029297,504.414215 1356.647217,521.710571 1345.604492,536.703857 
	C1331.691406,555.594299 1312.021118,564.456177 1289.505737,567.761108 
	C1260.050781,572.084595 1232.658203,565.642395 1206.256348,550.791016 
	C1211.057861,540.213196 1215.843506,529.669983 1220.773682,518.788208 
M1317.542358,420.903198 
	C1317.642700,410.612579 1318.646729,400.234741 1317.664062,390.048615 
	C1315.271484,365.246094 1303.714111,353.717682 1280.583008,351.511566 
	C1260.970093,349.640930 1245.637451,358.949707 1239.492065,377.535797 
	C1233.517822,395.603790 1233.572021,413.962677 1240.425781,431.858948 
	C1247.661621,450.753357 1264.246460,460.763489 1284.062866,458.882050 
	C1301.585327,457.218414 1312.747437,445.754242 1316.820679,425.221283 
	C1317.047241,424.079498 1317.179688,422.919006 1317.542358,420.903198 
z"/>
<path fill="#D32D21" opacity="1.000000" stroke="none" 
	d="
M1396.361328,469.999939 
	C1396.361328,396.024719 1396.361328,322.549530 1396.361328,248.503632 
	C1398.212280,248.373886 1399.792969,248.167480 1401.373779,248.166534 
	C1428.037598,248.150497 1454.701904,248.057205 1481.365112,248.196411 
	C1502.756836,248.308090 1522.244019,254.155670 1538.087646,269.127533 
	C1555.131714,285.233978 1561.996582,305.661743 1561.393555,328.685303 
	C1560.639038,357.493652 1549.164062,380.557526 1523.738525,395.494049 
	C1512.176147,402.286499 1499.427246,405.548645 1486.077881,405.871307 
	C1471.920654,406.213562 1457.750366,406.016846 1443.585693,406.054260 
	C1441.957764,406.058563 1440.329834,406.054840 1438.169189,406.054840 
	C1438.169189,436.072540 1438.169189,465.644989 1438.169189,495.551361 
	C1424.078369,495.551361 1410.522827,495.551361 1396.361206,495.551361 
	C1396.361206,487.062866 1396.361206,478.781403 1396.361328,469.999939 
M1452.506348,366.934174 
	C1462.005493,366.931061 1471.507202,367.065308 1481.003418,366.895782 
	C1499.907349,366.558380 1513.429077,356.426575 1517.552612,338.911194 
	C1518.865845,333.332703 1519.158081,327.300293 1518.729492,321.564331 
	C1517.303589,302.473633 1505.000854,289.383606 1485.998291,288.033844 
	C1470.416626,286.927094 1454.709839,287.576904 1439.058472,287.479584 
	C1438.811768,287.478027 1438.562622,287.879700 1438.352051,288.060944 
	C1438.352051,314.198578 1438.352051,340.300079 1438.352051,366.934204 
	C1442.933350,366.934204 1447.222046,366.934204 1452.506348,366.934174 
z"/>
<path fill="#D32C20" opacity="1.000000" stroke="none" 
	d="
M452.947876,340.953796 
	C479.647827,309.727112 528.067322,300.739258 562.278320,320.816681 
	C583.125854,333.051483 593.511108,352.536163 597.755005,375.613159 
	C599.011353,382.444977 599.305542,389.512512 599.403137,396.480988 
	C599.488892,402.602844 598.682922,408.737213 598.235718,415.388397 
	C556.904724,415.388397 515.999756,415.388397 474.370697,415.388397 
	C477.487122,434.110291 485.935699,448.595673 503.045929,455.862244 
	C532.559082,468.396301 556.824158,458.505493 577.963074,435.525360 
	C585.071594,446.372009 592.036438,456.999451 599.202759,467.934204 
	C592.893555,475.685883 585.169189,481.719635 576.491089,486.272247 
	C539.390015,505.735809 502.797577,505.315552 468.007782,481.112732 
	C447.102875,466.569397 435.929901,445.340576 432.644928,420.260895 
	C428.860504,391.367889 434.176239,364.561554 452.947876,340.953796 
M480.954407,370.483124 
	C479.743683,373.132111 478.532959,375.781097 477.225555,378.641602 
	C504.068665,378.641602 530.204102,378.641602 556.390442,378.641602 
	C553.940247,361.207764 541.406677,348.944153 524.582275,347.781158 
	C505.862579,346.487152 491.320953,353.858154 480.954407,370.483124 
z"/>
<path fill="#D32D20" opacity="1.000000" stroke="none" 
	d="
M753.182129,495.808472 
	C739.263550,495.153595 734.866882,492.800354 726.461243,481.479095 
	C724.737549,482.908722 723.032898,484.362457 721.286804,485.764587 
	C696.459290,505.701385 654.491821,504.032532 631.269958,482.192047 
	C605.158997,457.634277 609.131042,413.763916 639.331848,393.783569 
	C653.411072,384.468964 669.299011,380.131653 685.787781,378.149078 
	C697.007263,376.800049 708.361755,376.571564 719.656555,375.852448 
	C721.292480,375.748260 722.932129,375.702271 724.494385,375.632721 
	C726.475220,363.332550 716.375549,351.177246 702.714355,349.027222 
	C683.327393,345.976105 666.147644,351.266724 650.638977,362.831757 
	C648.637878,364.324005 646.713379,365.918915 644.735657,367.443115 
	C644.492310,367.630707 644.138123,367.674652 643.358459,367.959167 
	C636.828247,357.312531 630.252197,346.591187 623.569214,335.695465 
	C632.391846,326.525024 642.959778,320.721436 654.435303,316.479858 
	C672.919617,309.647797 691.945557,307.376007 711.412842,310.976532 
	C740.232361,316.306824 758.009460,334.465637 762.844666,363.412018 
	C763.773499,368.972260 764.261353,374.668182 764.294006,380.305359 
	C764.433167,404.300262 764.447754,428.297913 764.198608,452.291321 
	C764.151123,456.863098 765.634155,458.199036 769.914673,457.779114 
	C773.023804,457.474091 776.186951,457.719543 779.662231,457.719543 
	C779.662231,470.473602 779.662231,482.846893 779.662231,495.820190 
	C770.886902,495.820190 762.272095,495.820190 753.182129,495.808472 
M671.931824,462.856201 
	C687.123840,466.461700 700.019775,462.365997 710.283752,450.763184 
	C719.934570,439.853485 724.844116,426.997894 725.208191,412.004059 
	C707.606689,412.132172 690.822754,412.607605 674.599731,417.794342 
	C667.697449,420.001099 661.108337,423.112854 657.173523,429.585663 
	C649.200439,442.701294 655.304871,456.900940 671.931824,462.856201 
z"/>
<path fill="#D32D21" opacity="1.000000" stroke="none" 
	d="
M1702.233643,489.217834 
	C1662.050903,508.318359 1617.947144,501.584442 1588.398315,470.186188 
	C1561.620972,441.733093 1554.862793,407.501221 1568.045288,370.966187 
	C1581.086914,334.822083 1608.511475,314.317596 1646.541992,310.310852 
	C1687.928101,305.950623 1720.923950,321.558441 1741.867432,358.094421 
	C1768.295166,404.197449 1750.051514,463.370178 1702.233643,489.217834 
M1693.542603,447.077423 
	C1708.827026,432.248993 1714.498291,414.074890 1710.899536,393.380829 
	C1707.455444,373.576813 1696.180664,359.204590 1677.172241,352.150909 
	C1657.566284,344.875458 1638.914062,347.747223 1622.888794,361.400177 
	C1599.517334,381.311615 1597.145996,417.333740 1616.918091,441.494293 
	C1634.747925,463.281677 1668.747925,468.897247 1693.542603,447.077423 
z"/>
<path fill="#D32D21" opacity="1.000000" stroke="none" 
	d="
M1977.143311,453.999207 
	C1977.098022,429.506531 1977.170166,405.512390 1976.916382,381.521759 
	C1976.860596,376.242188 1976.097290,370.868286 1974.876099,365.723877 
	C1972.287598,354.819672 1966.004761,349.882385 1954.652344,349.171692 
	C1940.810425,348.305145 1929.195068,353.561951 1919.379395,362.844299 
	C1905.211426,376.242523 1898.367676,392.819000 1898.492676,412.405090 
	C1898.656372,438.064026 1898.516602,463.724915 1898.507568,489.384949 
	C1898.506836,491.344452 1898.507446,493.303925 1898.507446,495.560791 
	C1884.684326,495.560791 1871.422241,495.560791 1857.696899,495.560791 
	C1857.696899,434.945282 1857.696899,374.278625 1857.696899,313.419006 
	C1871.110596,313.419006 1884.344971,313.419006 1898.126953,313.419006 
	C1898.126953,321.266876 1898.126953,328.813110 1898.126953,336.307587 
	C1905.748169,330.396088 1912.604004,324.039307 1920.410156,319.222626 
	C1941.833374,306.003845 1964.505493,306.222626 1986.909424,316.118378 
	C2004.626099,323.943817 2012.557495,339.666473 2015.876343,357.854034 
	C2017.214233,365.185852 2017.845825,372.733917 2017.921997,380.192535 
	C2018.167114,404.183807 2018.003662,428.179230 2017.997681,452.173065 
	C2017.997314,453.794434 2017.997559,455.415833 2017.997559,457.559937 
	C2023.467041,457.559937 2028.383179,457.559937 2033.568481,457.559937 
	C2033.568481,470.479156 2033.568481,482.872772 2033.568481,494.840363 
	C2021.238525,494.840363 2009.045044,495.853210 1997.101685,494.559174 
	C1984.844360,493.231140 1977.916260,483.351227 1977.248413,469.492126 
	C1977.008179,464.504303 1977.166626,459.497284 1977.143311,453.999207 
z"/>
<path fill="#D32D21" opacity="1.000000" stroke="none" 
	d="
M1049.127075,467.000000 
	C1049.127075,476.782135 1049.127075,486.064301 1049.127075,495.597778 
	C1035.322266,495.597778 1022.078552,495.597778 1008.446777,495.597778 
	C1008.446777,434.821838 1008.446777,374.273254 1008.446777,313.414215 
	C1021.767395,313.414215 1034.998169,313.414215 1048.814941,313.414215 
	C1048.814941,321.226227 1048.814941,328.765045 1048.814941,336.317444 
	C1056.625000,330.299896 1063.609985,323.860291 1071.559692,318.997589 
	C1092.690674,306.071991 1115.103271,306.319092 1137.180054,315.904602 
	C1155.711670,323.950928 1163.814575,340.326416 1166.853638,359.324310 
	C1168.241089,367.997437 1168.721680,376.881897 1168.830811,385.680206 
	C1169.103394,407.671631 1168.928345,429.668610 1168.932983,451.663361 
	C1168.933350,453.464203 1168.932983,455.265045 1168.932983,457.614563 
	C1174.305786,457.614563 1179.210571,457.614563 1184.361816,457.614563 
	C1184.361816,470.438263 1184.361816,482.712372 1184.361816,495.373199 
	C1183.090454,495.532410 1181.838013,495.820953 1180.584839,495.824707 
	C1172.420654,495.849274 1164.253906,495.932007 1156.092407,495.770538 
	C1137.832642,495.409271 1128.074951,485.545685 1127.979980,467.343658 
	C1127.893921,450.848022 1128.053955,434.350861 1127.924316,417.855804 
	C1127.810425,403.368927 1127.456787,388.883820 1127.175659,374.398590 
	C1127.146729,372.904572 1126.995239,371.395752 1126.724365,369.926270 
	C1123.695679,353.497131 1113.300293,346.353058 1096.270142,349.553131 
	C1075.167114,353.518616 1061.872192,367.202545 1054.210571,386.265289 
	C1051.063232,394.096100 1049.686157,403.022247 1049.355347,411.522186 
	C1048.643066,429.823364 1049.130615,448.171234 1049.127075,467.000000 
z"/>
<path fill="#D42D21" opacity="1.000000" stroke="none" 
	d="
M2049.019775,313.333008 
	C2049.457764,313.270905 2049.895996,313.208771 2050.741699,313.551849 
	C2052.459229,313.712128 2053.769287,313.467194 2055.079102,313.222290 
	C2055.079102,313.222290 2055.239746,313.027222 2055.677734,312.972107 
	C2056.616211,311.681854 2057.518555,310.457001 2057.550293,309.209839 
	C2057.728271,302.285156 2058.637207,295.189087 2057.455566,288.475555 
	C2056.371582,282.316589 2060.695068,281.307343 2063.754639,278.915161 
	C2067.562012,275.938080 2071.662598,273.335571 2075.636719,270.571411 
	C2075.636719,270.571442 2075.577148,270.751099 2075.897461,270.713745 
	C2076.458252,270.416962 2076.698730,270.157532 2076.938965,269.898071 
	C2076.938965,269.898102 2077.004639,269.985321 2077.335938,269.947906 
	C2083.166504,267.245758 2088.665527,264.581024 2095.000000,261.511536 
	C2095.000000,264.482025 2095.000000,266.285370 2095.000000,268.088715 
	C2095.000000,281.413361 2094.933838,294.738708 2095.083740,308.061707 
	C2095.102539,309.724579 2096.265137,311.374542 2096.897949,313.030518 
	C2101.620850,313.068512 2106.343994,313.106537 2111.651855,313.605896 
	C2114.122070,314.378052 2116.002686,314.919403 2117.893311,314.957062 
	C2123.765137,315.074097 2129.640869,314.999878 2135.996094,314.999878 
	C2135.996094,325.384552 2135.857178,334.986847 2136.068359,344.581421 
	C2136.146973,348.143616 2134.883301,349.124481 2131.473877,349.063019 
	C2121.512695,348.883453 2111.544922,348.930389 2101.582764,349.081268 
	C2100.033936,349.104767 2098.500732,350.138184 2096.960205,350.704559 
	C2096.843018,357.855988 2096.639160,365.007294 2096.625732,372.158936 
	C2096.592529,389.978699 2096.602783,407.798859 2096.704346,425.618225 
	C2096.722168,428.763550 2096.987793,431.962982 2097.616211,435.039948 
	C2101.003418,451.625122 2112.769775,459.515350 2129.476807,456.535461 
	C2133.055176,455.897217 2136.613770,455.148499 2140.572754,454.374207 
	C2140.572754,467.648743 2140.572754,480.526672 2140.572754,493.341034 
	C2097.704834,505.610748 2059.989990,480.287170 2056.395020,436.072815 
	C2056.811768,433.674561 2056.986816,432.023804 2056.988037,430.372925 
	C2057.005859,406.919159 2056.999756,383.465363 2057.000000,360.011597 
	C2057.000244,349.003448 2057.000732,349.027649 2045.556030,348.982758 
	C2042.579468,348.971069 2038.638916,349.847076 2036.909424,348.316864 
	C2035.303955,346.896606 2036.180664,342.790131 2035.750610,339.898193 
	C2034.721069,332.971558 2034.609253,326.268555 2036.697144,319.329651 
	C2037.793457,315.686890 2039.153564,314.989655 2042.377563,314.904358 
	C2044.604004,314.845490 2046.806519,313.888580 2049.019775,313.333008 
z"/>
<path fill="#D32D21" opacity="1.000000" stroke="none" 
	d="
M803.016357,426.000000 
	C803.016357,388.247589 803.016357,350.995178 803.016357,313.487366 
	C816.700256,313.487366 829.789307,313.487366 843.604980,313.487366 
	C843.604980,321.588928 843.604980,329.604187 843.604980,337.619476 
	C844.007080,337.748016 844.409180,337.876587 844.811279,338.005157 
	C846.260010,336.090393 847.688965,334.160309 849.160461,332.263275 
	C862.844360,314.622498 880.414917,308.251282 900.599731,313.789185 
	C901.955811,314.161224 903.948181,315.813324 903.969055,316.902161 
	C904.207581,329.360382 904.120911,341.824799 904.120911,354.750854 
	C901.765381,354.469177 899.820984,354.410553 897.959290,353.987732 
	C873.787781,348.498474 859.839233,361.907349 852.025085,378.318817 
	C846.195862,390.561310 844.029907,403.646667 844.002014,417.110016 
	C843.951233,441.594147 843.989807,466.078522 843.991150,490.562775 
	C843.991211,492.050842 843.991089,493.538910 843.991089,495.464417 
	C830.360962,495.464417 817.000977,495.464417 803.016357,495.464417 
	C803.016357,472.359375 803.016357,449.429688 803.016357,426.000000 
z"/>
<path fill="#D32D20" opacity="1.000000" stroke="none" 
	d="
M1817.047852,455.566254 
	C1818.437988,456.582703 1819.777344,457.526550 1821.170166,457.613159 
	C1824.801758,457.838989 1828.456787,457.689117 1832.432129,457.689117 
	C1832.432129,470.378174 1832.432129,482.761414 1832.432129,496.566467 
	C1819.241943,495.749908 1806.104614,495.818542 1793.282349,493.842651 
	C1784.261597,492.452545 1778.897095,485.271240 1777.023071,476.194946 
	C1776.322144,472.799927 1776.018555,469.264984 1776.012939,465.793030 
	C1775.941895,421.656860 1776.003662,377.520416 1775.870972,333.384521 
	C1775.859619,329.612762 1776.845093,327.441864 1780.303833,325.553253 
	C1792.382812,318.957520 1804.236694,311.949341 1817.021606,304.612610 
	C1817.021606,355.366516 1817.021606,405.234772 1817.047852,455.566254 
z"/>
<path fill="#D42C1F" opacity="1.000000" stroke="none" 
	d="
M967.637390,310.064484 
	C967.686951,311.093872 967.736572,312.123230 967.350891,313.688416 
	C966.637024,315.635254 966.115906,317.046112 966.115051,318.457336 
	C966.087036,363.795959 966.100037,409.134644 966.193481,454.473114 
	C966.195251,455.334473 967.237854,456.193665 967.794800,457.053864 
	C967.794800,457.053864 967.979980,457.115631 967.965515,457.550171 
	C968.750671,458.563629 969.541321,459.613800 970.351624,459.629181 
	C972.422546,459.668427 974.503967,459.261047 976.577942,459.006104 
	C980.187317,458.562439 982.197144,459.566956 982.099792,463.782654 
	C981.896851,472.566895 981.994019,481.360107 982.097412,490.148102 
	C982.128418,492.781311 981.443420,494.117340 978.491089,494.068481 
	C964.057434,493.829681 949.398804,495.768921 935.646851,489.355042 
	C935.646851,489.355042 935.878052,488.970459 935.741821,488.882782 
	C935.282043,488.718231 934.958496,488.641388 934.635010,488.564514 
	C934.635010,488.564514 934.562744,488.466858 934.617310,488.078339 
	C933.517700,484.524719 931.804626,481.657990 930.230896,478.721252 
	C928.319275,475.153961 928.064880,470.410919 928.035339,466.170013 
	C927.855469,440.400757 927.943970,414.629700 927.942505,388.859222 
	C927.941467,370.903046 927.962036,352.946777 927.920654,334.990692 
	C927.911804,331.145996 928.179810,327.733063 932.782104,326.375488 
	C934.765686,325.790344 936.552124,324.412231 938.313904,323.224884 
	C942.483215,320.415009 946.584106,317.503693 950.712708,314.633362 
	C950.712708,314.633362 950.954529,315.011261 951.188232,314.908813 
	C953.537354,313.432861 955.652832,312.059357 957.768250,310.685852 
	C957.768250,310.685852 957.896790,310.975830 958.195801,310.920654 
	C961.613525,311.411652 964.276184,306.750946 967.637390,310.064484 
z"/>
<path fill="#D22E22" opacity="1.000000" stroke="none" 
	d="
M929.078857,256.135071 
	C938.993652,246.136108 951.877441,244.279282 961.839905,251.141891 
	C972.418152,258.428833 976.284119,271.169098 971.281921,282.258362 
	C965.248108,295.634491 949.997803,301.201721 936.984619,294.778687 
	C924.441833,288.587799 919.590698,272.801697 926.379456,260.144135 
	C927.080627,258.836914 928.040100,257.668274 929.078857,256.135071 
z"/>
<path fill="#D22E22" opacity="1.000000" stroke="none" 
	d="
M1778.205078,256.259460 
	C1785.974731,247.984039 1795.006470,245.050858 1805.588745,248.549438 
	C1815.141602,251.707672 1820.581909,258.659424 1822.347046,268.455963 
	C1824.187622,278.671082 1818.845947,289.355042 1809.522095,294.479828 
	C1800.221802,299.591644 1788.253174,297.844391 1779.961182,290.164490 
	C1772.837402,283.566650 1770.429443,271.631744 1774.512573,262.557617 
	C1775.457886,260.457031 1776.812500,258.540588 1778.205078,256.259460 
z"/>
<path fill="#CD342B" opacity="1.000000" stroke="none" 
	d="
M2198.020020,433.001709 
	C2212.206299,422.938171 2228.054199,422.654999 2240.534668,432.025726 
	C2253.884277,442.049500 2259.126465,459.378357 2253.630371,475.318085 
	C2248.456787,490.322906 2234.481934,500.379700 2218.988281,499.739685 
	C2204.126709,499.125763 2193.302979,491.779022 2187.543945,478.153137 
	C2181.316895,463.419708 2183.555664,449.507568 2193.850098,437.091370 
	C2195.011963,435.690033 2196.437012,434.506927 2198.020020,433.001709 
M2239.320557,483.825134 
	C2240.392090,482.554688 2241.602539,481.376251 2242.512695,479.999115 
	C2249.012939,470.163330 2250.014404,459.680573 2244.834717,449.154541 
	C2240.110352,439.553955 2232.182373,433.751831 2221.218262,433.105377 
	C2209.004883,432.385254 2197.819336,440.382507 2193.805420,452.341492 
	C2189.319336,465.707458 2193.741699,479.792145 2204.806396,487.377258 
	C2215.252441,494.538208 2228.107178,493.389252 2239.320557,483.825134 
z"/>
<path fill="#C34D47" opacity="1.000000" stroke="none" 
	d="
M950.359924,314.687256 
	C946.584106,317.503693 942.483215,320.415009 938.313904,323.224884 
	C936.552124,324.412231 934.765686,325.790344 932.782104,326.375488 
	C928.179810,327.733063 927.911804,331.145996 927.920654,334.990692 
	C927.962036,352.946777 927.941467,370.903046 927.942505,388.859222 
	C927.943970,414.629700 927.855469,440.400757 928.035339,466.170013 
	C928.064880,470.410919 928.319275,475.153961 930.230896,478.721252 
	C931.804626,481.657990 933.517700,484.524719 934.565918,488.045959 
	C929.261414,484.227020 927.476318,478.354034 926.970642,472.134247 
	C926.472656,466.008698 926.527222,459.829987 926.518311,453.674316 
	C926.460388,413.881348 926.535095,374.087799 926.313782,334.295868 
	C926.288147,329.681671 927.651550,327.058258 931.747864,325.010864 
	C937.986755,321.892670 943.935303,318.193573 950.359924,314.687256 
z"/>
<path fill="#CD342B" opacity="1.000000" stroke="none" 
	d="
M2048.561523,313.229950 
	C2046.806519,313.888580 2044.604004,314.845490 2042.377563,314.904358 
	C2039.153564,314.989655 2037.793457,315.686890 2036.697144,319.329651 
	C2034.609253,326.268555 2034.721069,332.971558 2035.750610,339.898193 
	C2036.180664,342.790131 2035.303955,346.896606 2036.909424,348.316864 
	C2038.638916,349.847076 2042.579468,348.971069 2045.556030,348.982758 
	C2057.000732,349.027649 2057.000244,349.003448 2057.000000,360.011597 
	C2056.999756,383.465363 2057.005859,406.919159 2056.988037,430.372925 
	C2056.986816,432.023804 2056.811768,433.674561 2056.459961,435.645233 
	C2055.972656,432.994324 2055.552002,430.024048 2055.543945,427.052673 
	C2055.480957,403.619293 2055.496582,380.185669 2055.488281,356.752136 
	C2055.487549,354.965881 2055.488037,353.179596 2055.488037,350.854980 
	C2048.252686,350.854980 2041.510986,350.854980 2034.359131,350.854980 
	C2034.359131,338.128143 2034.359131,325.947601 2034.359131,313.126892 
	C2038.920288,313.126892 2043.511597,313.126892 2048.561523,313.229950 
z"/>
<path fill="#C34D47" opacity="1.000000" stroke="none" 
	d="
M967.855347,456.586304 
	C967.237854,456.193665 966.195251,455.334473 966.193481,454.473114 
	C966.100037,409.134644 966.087036,363.795959 966.115051,318.457336 
	C966.115906,317.046112 966.637024,315.635254 967.268127,314.068024 
	C967.722778,315.897400 967.913452,317.882904 967.914001,319.868500 
	C967.927185,365.285248 967.919556,410.701965 967.855347,456.586304 
z"/>
<path fill="#C34D47" opacity="1.000000" stroke="none" 
	d="
M935.780151,489.663849 
	C949.398804,495.768921 964.057434,493.829681 978.491089,494.068481 
	C981.443420,494.117340 982.128418,492.781311 982.097412,490.148102 
	C981.994019,481.360107 981.896851,472.566895 982.099792,463.782654 
	C982.197144,459.566956 980.187317,458.562439 976.577942,459.006104 
	C974.503967,459.261047 972.422546,459.668427 970.351624,459.629181 
	C969.541321,459.613800 968.750671,458.563629 967.931458,457.641663 
	C972.877319,457.298584 977.842712,457.298584 983.162354,457.298584 
	C983.162354,470.413361 983.162354,482.965790 983.162354,494.968658 
	C970.825317,494.968658 958.717407,495.347839 946.659424,494.739349 
	C943.006531,494.554962 939.491516,491.638000 935.780151,489.663849 
z"/>
<path fill="#CD342B" opacity="1.000000" stroke="none" 
	d="
M2097.429443,350.732483 
	C2098.500732,350.138184 2100.033936,349.104767 2101.582764,349.081268 
	C2111.544922,348.930389 2121.512695,348.883453 2131.473877,349.063019 
	C2134.883301,349.124481 2136.146973,348.143616 2136.068359,344.581421 
	C2135.857178,334.986847 2135.996094,325.384552 2135.996094,314.999878 
	C2129.640869,314.999878 2123.765137,315.074097 2117.893311,314.957062 
	C2116.002686,314.919403 2114.122070,314.378052 2112.108398,313.699951 
	C2120.270752,313.332703 2128.561279,313.332703 2137.167969,313.332703 
	C2137.167969,325.598633 2137.167969,337.821167 2137.167969,350.760345 
	C2123.999512,350.760345 2110.949219,350.760345 2097.429443,350.732483 
z"/>
<path fill="#CD342B" opacity="1.000000" stroke="none" 
	d="
M2096.808105,312.566833 
	C2096.265137,311.374542 2095.102539,309.724579 2095.083740,308.061707 
	C2094.933838,294.738708 2095.000000,281.413361 2095.000000,268.088715 
	C2095.000000,266.285370 2095.000000,264.482025 2095.000000,261.511536 
	C2088.665527,264.581024 2083.166504,267.245758 2077.293457,269.913818 
	C2083.189209,266.086212 2089.458984,262.255280 2096.718018,257.819763 
	C2096.718018,276.751099 2096.718018,294.427155 2096.808105,312.566833 
z"/>
<path fill="#CD342B" opacity="1.000000" stroke="none" 
	d="
M2075.292969,270.650635 
	C2071.662598,273.335571 2067.562012,275.938080 2063.754639,278.915161 
	C2060.695068,281.307343 2056.371582,282.316589 2057.455566,288.475555 
	C2058.637207,295.189087 2057.728271,302.285156 2057.550293,309.209839 
	C2057.518555,310.457001 2056.616211,311.681854 2055.789062,313.032104 
	C2055.598633,303.864929 2055.573730,294.575012 2056.008301,285.306671 
	C2056.094727,283.461731 2057.503662,281.040680 2059.051270,280.019073 
	C2064.165771,276.643066 2069.623291,273.786102 2075.292969,270.650635 
z"/>
<path fill="#C34D47" opacity="1.000000" stroke="none" 
	d="
M967.762512,309.677856 
	C964.276184,306.750946 961.613525,311.411652 958.115051,310.784088 
	C960.732239,308.747040 963.729126,306.791351 967.467102,304.352020 
	C967.655762,306.567963 967.771667,307.929626 967.762512,309.677856 
z"/>
<path fill="#C34D47" opacity="1.000000" stroke="none" 
	d="
M957.416748,310.732941 
	C955.652832,312.059357 953.537354,313.432861 951.062378,314.722046 
	C952.823608,313.351807 954.944397,312.065918 957.416748,310.732941 
z"/>
<path fill="#CD342B" opacity="1.000000" stroke="none" 
	d="
M2054.670654,313.159149 
	C2053.769287,313.467194 2052.459229,313.712128 2051.064453,313.641174 
	C2052.073975,313.248871 2053.167969,313.172455 2054.670654,313.159149 
z"/>
<path fill="#CD342B" opacity="1.000000" stroke="none" 
	d="
M2076.675049,269.906860 
	C2076.698730,270.157532 2076.458252,270.416962 2075.942383,270.630920 
	C2075.915039,270.362183 2076.163086,270.138885 2076.675049,269.906860 
z"/>
<path fill="#C34D47" opacity="1.000000" stroke="none" 
	d="
M934.724731,488.776794 
	C934.958496,488.641388 935.282043,488.718231 935.618774,489.071777 
	C935.298279,489.367889 935.025757,489.248108 934.724731,488.776794 
z"/>
<path fill="#FEFCFB" opacity="1.000000" stroke="none" 
	d="
M289.815277,387.011230 
	C291.492615,386.628204 293.167511,385.926056 294.847717,385.912994 
	C307.483002,385.814819 320.138397,386.297302 332.751617,385.758667 
	C362.758545,384.477203 376.050293,407.300842 369.797180,433.863525 
	C368.744843,436.720734 367.939423,438.894562 367.134003,441.068390 
	C367.134003,441.068390 367.050690,441.084595 366.832092,441.298218 
	C366.267426,442.210022 365.921326,442.908203 365.575256,443.606384 
	C365.575226,443.606384 365.760193,443.858765 365.389954,443.886597 
	C364.619019,444.559570 364.218292,445.204742 363.817505,445.849915 
	C363.817505,445.849884 363.979462,445.993256 363.651581,446.003754 
	C363.044495,446.462799 362.765320,446.911346 362.486145,447.359894 
	C362.486145,447.359894 362.471466,447.476593 362.153870,447.563293 
	C361.529480,448.079346 361.222717,448.508728 360.915985,448.938110 
	C360.915985,448.938110 360.990112,448.995514 360.633209,449.017822 
	C358.083069,450.533539 355.889801,452.026917 353.696533,453.520325 
	C353.696564,453.520325 353.677582,453.597260 353.259155,453.642395 
	C346.465485,454.639648 340.111267,456.191498 333.710449,456.416290 
	C321.239014,456.854309 308.741486,456.560577 296.254822,456.539734 
	C294.320496,456.536530 292.386414,456.373505 290.026184,456.264709 
	C290.026184,454.020172 290.031311,452.220398 290.025452,450.420685 
	C289.956329,429.284210 289.885559,408.147705 289.815277,387.011230 
z"/>
<path fill="#FEFBFA" opacity="1.000000" stroke="none" 
	d="
M358.961365,300.106232 
	C363.908112,311.094757 364.270569,322.092957 358.697693,333.653137 
	C355.452911,337.330353 352.541595,340.457458 349.630249,343.584534 
	C349.630249,343.584534 349.919403,343.856659 349.427399,343.785828 
	C343.312836,344.948914 337.725769,347.005432 332.060516,347.249939 
	C319.272034,347.801849 306.444946,347.468475 293.633545,347.460022 
	C292.529907,347.459290 291.426483,347.197021 290.313477,347.055023 
	C290.313477,327.004303 290.313477,307.315430 290.313477,288.017487 
	C307.804077,288.017487 324.906128,288.017487 342.008148,288.017487 
	C342.248169,288.269226 342.541870,288.404785 343.379608,288.585297 
	C344.597565,288.878723 345.325134,289.010986 346.052734,289.143250 
	C346.052734,289.143250 346.197357,289.264099 346.494720,289.506439 
	C347.431061,289.986206 348.070007,290.223633 348.708954,290.461060 
	C348.708954,290.461090 348.780212,290.322205 348.850891,290.589203 
	C349.268066,290.933472 349.614594,291.010742 349.961121,291.087982 
	C349.961121,291.087982 349.980194,291.006317 350.112305,291.285400 
	C350.791382,291.777466 351.338318,291.990448 351.885284,292.203430 
	C351.885284,292.203430 351.940552,292.052368 352.011597,292.389984 
	C352.895660,293.274719 353.708649,293.821838 354.521637,294.368958 
	C354.521637,294.368958 354.631378,294.261017 354.672180,294.607300 
	C355.149811,295.283417 355.586700,295.613281 356.023560,295.943115 
	C356.023560,295.943115 355.996979,295.993988 356.069000,296.251465 
	C356.544128,296.842773 356.947266,297.176605 357.350372,297.510468 
	C357.350372,297.510468 357.537781,297.448395 357.533966,297.810059 
	C358.007233,298.816589 358.484283,299.461395 358.961365,300.106232 
z"/>
<path fill="#CD342B" opacity="1.000000" stroke="none" 
	d="
M341.919495,287.618347 
	C324.906128,288.017487 307.804077,288.017487 290.313477,288.017487 
	C290.313477,307.315430 290.313477,327.004303 290.313477,347.055023 
	C291.426483,347.197021 292.529907,347.459290 293.633545,347.460022 
	C306.444946,347.468475 319.272034,347.801849 332.060516,347.249939 
	C337.725769,347.005432 343.312836,344.948914 349.300110,343.633453 
	C346.476776,348.068878 341.520142,348.808868 336.695038,348.909607 
	C324.036194,349.173828 311.368256,348.992188 298.703949,349.013306 
	C297.045959,349.016083 295.313599,348.885223 293.745117,349.302521 
	C289.837433,350.342255 288.111847,348.087952 288.124695,344.988708 
	C288.180450,331.529755 288.684418,318.073273 288.820251,304.613800 
	C288.865173,300.160950 288.377502,295.694427 287.978638,291.248016 
	C287.649536,287.579254 289.323578,286.004303 292.843384,286.005310 
	C308.340485,286.009735 323.837646,285.987732 339.334412,286.057800 
	C340.168304,286.061554 340.998779,286.814789 341.919495,287.618347 
z"/>
<path fill="#C34D47" opacity="1.000000" stroke="none" 
	d="
M289.549469,387.328308 
	C289.885559,408.147705 289.956329,429.284210 290.025452,450.420685 
	C290.031311,452.220398 290.026184,454.020172 290.026184,456.264709 
	C292.386414,456.373505 294.320496,456.536530 296.254822,456.539734 
	C308.741486,456.560577 321.239014,456.854309 333.710449,456.416290 
	C340.111267,456.191498 346.465485,454.639648 353.223206,453.625763 
	C349.840118,455.019196 346.106537,457.624939 342.303467,457.730713 
	C325.664886,458.193268 309.006042,457.905701 292.354767,457.956451 
	C289.512177,457.965118 287.980927,457.032074 288.043427,453.932892 
	C288.488922,431.837708 288.877167,409.741394 289.549469,387.328308 
z"/>
<path fill="#CD342B" opacity="1.000000" stroke="none" 
	d="
M349.999390,343.689819 
	C352.541595,340.457458 355.452911,337.330353 358.648193,334.014404 
	C359.080902,339.728546 355.176483,342.149902 349.999390,343.689819 
z"/>
<path fill="#C34D47" opacity="1.000000" stroke="none" 
	d="
M354.093658,453.663208 
	C355.889801,452.026917 358.083069,450.533539 360.609528,448.977356 
	C360.985413,453.438141 357.952332,453.904694 354.093658,453.663208 
z"/>
<path fill="#C34D47" opacity="1.000000" stroke="none" 
	d="
M367.486389,440.987457 
	C367.939423,438.894562 368.744843,436.720734 369.768005,434.285675 
	C369.270142,436.318481 368.554474,438.612488 367.486389,440.987457 
z"/>
<path fill="#CD342B" opacity="1.000000" stroke="none" 
	d="
M354.635254,293.998901 
	C353.708649,293.821838 352.895660,293.274719 351.959778,292.451477 
	C352.807556,292.659851 353.778229,293.144318 354.635254,293.998901 
z"/>
<path fill="#C34D47" opacity="1.000000" stroke="none" 
	d="
M364.177551,445.844269 
	C364.218292,445.204742 364.619019,444.559570 365.276093,443.779327 
	C365.200806,444.375702 364.869171,445.107178 364.177551,445.844269 
z"/>
<path fill="#C34D47" opacity="1.000000" stroke="none" 
	d="
M365.904114,443.579498 
	C365.921326,442.908203 366.267426,442.210022 366.852295,441.335510 
	C366.805054,441.957001 366.518982,442.754822 365.904114,443.579498 
z"/>
<path fill="#CD342B" opacity="1.000000" stroke="none" 
	d="
M358.975800,299.731873 
	C358.484283,299.461395 358.007233,298.816589 357.462616,297.878296 
	C357.926788,298.175720 358.458527,298.766602 358.975800,299.731873 
z"/>
<path fill="#CD342B" opacity="1.000000" stroke="none" 
	d="
M348.620422,290.083923 
	C348.070007,290.223633 347.431061,289.986206 346.583252,289.474213 
	C347.093597,289.368683 347.812775,289.537720 348.620422,290.083923 
z"/>
<path fill="#C34D47" opacity="1.000000" stroke="none" 
	d="
M362.808777,447.422852 
	C362.765320,446.911346 363.044495,446.462799 363.579681,445.923035 
	C363.600891,446.383118 363.366150,446.934448 362.808777,447.422852 
z"/>
<path fill="#C34D47" opacity="1.000000" stroke="none" 
	d="
M361.244629,448.931213 
	C361.222717,448.508728 361.529480,448.079346 362.095520,447.570557 
	C362.094269,447.968872 361.833740,448.446594 361.244629,448.931213 
z"/>
<path fill="#CD342B" opacity="1.000000" stroke="none" 
	d="
M351.771088,291.907593 
	C351.338318,291.990448 350.791382,291.777466 350.081299,291.313660 
	C350.497772,291.245819 351.077332,291.428802 351.771088,291.907593 
z"/>
<path fill="#CD342B" opacity="1.000000" stroke="none" 
	d="
M345.816162,288.837524 
	C345.325134,289.010986 344.597565,288.878723 343.605225,288.483185 
	C344.086884,288.323883 344.833221,288.427826 345.816162,288.837524 
z"/>
<path fill="#CD342B" opacity="1.000000" stroke="none" 
	d="
M355.989502,295.630615 
	C355.586700,295.613281 355.149811,295.283417 354.652466,294.681702 
	C355.046478,294.712585 355.500946,295.015320 355.989502,295.630615 
z"/>
<path fill="#CD342B" opacity="1.000000" stroke="none" 
	d="
M357.454834,297.206665 
	C356.947266,297.176605 356.544128,296.842773 356.096710,296.243988 
	C356.554718,296.286987 357.057037,296.594910 357.454834,297.206665 
z"/>
<path fill="#CD342B" opacity="1.000000" stroke="none" 
	d="
M349.827301,290.839661 
	C349.614594,291.010742 349.268066,290.933472 348.781219,290.624420 
	C348.991760,290.458862 349.342621,290.525085 349.827301,290.839661 
z"/>
<path fill="#FEFCFC" opacity="1.000000" stroke="none" 
	d="
M1317.449097,421.335205 
	C1317.179688,422.919006 1317.047241,424.079498 1316.820679,425.221283 
	C1312.747437,445.754242 1301.585327,457.218414 1284.062866,458.882050 
	C1264.246460,460.763489 1247.661621,450.753357 1240.425781,431.858948 
	C1233.572021,413.962677 1233.517822,395.603790 1239.492065,377.535797 
	C1245.637451,358.949707 1260.970093,349.640930 1280.583008,351.511566 
	C1303.714111,353.717682 1315.271484,365.246094 1317.664062,390.048615 
	C1318.646729,400.234741 1317.642700,410.612579 1317.449097,421.335205 
z"/>
<path fill="#FEFCFB" opacity="1.000000" stroke="none" 
	d="
M1452.008545,366.934204 
	C1447.222046,366.934204 1442.933350,366.934204 1438.352051,366.934204 
	C1438.352051,340.300079 1438.352051,314.198578 1438.352051,288.060944 
	C1438.562622,287.879700 1438.811768,287.478027 1439.058472,287.479584 
	C1454.709839,287.576904 1470.416626,286.927094 1485.998291,288.033844 
	C1505.000854,289.383606 1517.303589,302.473633 1518.729492,321.564331 
	C1519.158081,327.300293 1518.865845,333.332703 1517.552612,338.911194 
	C1513.429077,356.426575 1499.907349,366.558380 1481.003418,366.895782 
	C1471.507202,367.065308 1462.005493,366.931061 1452.008545,366.934204 
z"/>
<path fill="#FEFBFA" opacity="1.000000" stroke="none" 
	d="
M481.109985,370.151672 
	C491.320953,353.858154 505.862579,346.487152 524.582275,347.781158 
	C541.406677,348.944153 553.940247,361.207764 556.390442,378.641602 
	C530.204102,378.641602 504.068665,378.641602 477.225555,378.641602 
	C478.532959,375.781097 479.743683,373.132111 481.109985,370.151672 
z"/>
<path fill="#FEFBFA" opacity="1.000000" stroke="none" 
	d="
M671.536987,462.748108 
	C655.304871,456.900940 649.200439,442.701294 657.173523,429.585663 
	C661.108337,423.112854 667.697449,420.001099 674.599731,417.794342 
	C690.822754,412.607605 707.606689,412.132172 725.208191,412.004059 
	C724.844116,426.997894 719.934570,439.853485 710.283752,450.763184 
	C700.019775,462.365997 687.123840,466.461700 671.536987,462.748108 
z"/>
<path fill="#FEFDFC" opacity="1.000000" stroke="none" 
	d="
M1693.294189,447.334167 
	C1668.747925,468.897247 1634.747925,463.281677 1616.918091,441.494293 
	C1597.145996,417.333740 1599.517334,381.311615 1622.888794,361.400177 
	C1638.914062,347.747223 1657.566284,344.875458 1677.172241,352.150909 
	C1696.180664,359.204590 1707.455444,373.576813 1710.899536,393.380829 
	C1714.498291,414.074890 1708.827026,432.248993 1693.294189,447.334167 
z"/>
<path fill="#FBF3F0" opacity="1.000000" stroke="none" 
	d="
M2239.068359,484.081421 
	C2228.107178,493.389252 2215.252441,494.538208 2204.806396,487.377258 
	C2193.741699,479.792145 2189.319336,465.707458 2193.805420,452.341492 
	C2197.819336,440.382507 2209.004883,432.385254 2221.218262,433.105377 
	C2232.182373,433.751831 2240.110352,439.553955 2244.834717,449.154541 
	C2250.014404,459.680573 2249.012939,470.163330 2242.512695,479.999115 
	C2241.602539,481.376251 2240.392090,482.554688 2239.068359,484.081421 
M2230.924805,447.515137 
	C2223.251465,442.627014 2215.139893,444.139160 2207.118164,445.283936 
	C2207.118164,457.588806 2207.118164,469.295410 2207.118164,480.883484 
	C2209.675293,480.883484 2211.768311,480.883484 2214.398193,480.883484 
	C2214.398193,476.008850 2214.398193,471.439606 2214.398193,466.958160 
	C2221.915283,466.011902 2223.883301,467.511505 2224.855225,474.434845 
	C2225.886230,481.778503 2225.997559,481.857422 2234.497314,480.569977 
	C2232.816406,474.641418 2231.166992,468.823212 2229.362305,462.457672 
	C2234.590088,458.189209 2235.353027,454.568359 2230.924805,447.515137 
z"/>
<path fill="#CD342B" opacity="1.000000" stroke="none" 
	d="
M2231.205078,447.782166 
	C2235.353027,454.568359 2234.590088,458.189209 2229.362305,462.457672 
	C2231.166992,468.823212 2232.816406,474.641418 2234.497314,480.569977 
	C2225.997559,481.857422 2225.886230,481.778503 2224.855225,474.434845 
	C2223.883301,467.511505 2221.915283,466.011902 2214.398193,466.958160 
	C2214.398193,471.439606 2214.398193,476.008850 2214.398193,480.883484 
	C2211.768311,480.883484 2209.675293,480.883484 2207.118164,480.883484 
	C2207.118164,469.295410 2207.118164,457.588806 2207.118164,445.283936 
	C2215.139893,444.139160 2223.251465,442.627014 2231.205078,447.782166 
M2214.839355,459.648071 
	C2217.459717,459.482971 2220.285889,459.857056 2222.628174,458.963318 
	C2224.191162,458.366882 2225.893555,456.010681 2225.984863,454.356506 
	C2226.057617,453.040405 2224.016113,450.837769 2222.502930,450.377045 
	C2219.982422,449.609772 2217.133301,449.921814 2214.277832,449.771790 
	C2214.154785,451.551941 2214.016846,452.529053 2214.034912,453.503265 
	C2214.068359,455.324799 2214.192627,457.144653 2214.839355,459.648071 
z"/>
<path fill="#FBF3F0" opacity="1.000000" stroke="none" 
	d="
M2214.559082,459.306641 
	C2214.192627,457.144653 2214.068359,455.324799 2214.034912,453.503265 
	C2214.016846,452.529053 2214.154785,451.551941 2214.277832,449.771790 
	C2217.133301,449.921814 2219.982422,449.609772 2222.502930,450.377045 
	C2224.016113,450.837769 2226.057617,453.040405 2225.984863,454.356506 
	C2225.893555,456.010681 2224.191162,458.366882 2222.628174,458.963318 
	C2220.285889,459.857056 2217.459717,459.482971 2214.559082,459.306641 
z"/>
</svg>